# xmcd CD database file
# Copyright (C) 1995 Ti Kan
#
# Track frame offsets:
#	183
#	11472
#	24618
#	38002
#	50161
#	64826
#	77026
#	89564
#	101111
#	114643
#
# Disc length: 1694 seconds
#
# Revision: 2
# Processed by: cddbd v1.4b41PL1 Copyright (c) Steve Scherf et al.
# Submitted via: NotifyCDPlayer(CDDB) 1.51.3
#
DISCID=81069c0a
DTITLE=Muddy Waters - Mississippi
DYEAR=1900
DGENRE=
TTITLE0=I Can't Call Her Sugar
TTITLE1=You Can't Lose What You Ain't Never Had
TTITLE2=Sad Letter
TTITLE3=I Can't Be Satisfied
TTITLE4=Baby Please Don't Go
TTITLE5=Walkin' Thru The Park
TTITLE6=Trainfare Blues
TTITLE7=Settin' Here Drinkin'
TTITLE8=I Got A Rich Man's Woman
TTITLE9=Mean Mistreater
EXTD=Masters Music, MACD 61030-2\nAll tracks previously released.
EXTT0=
EXTT1=
EXTT2=
EXTT3=
EXTT4=
EXTT5=
EXTT6=
EXTT7=
EXTT8=
EXTT9=
PLAYORDER=
